IKResults
version=1
nRows=9
nColumns=38
inDegrees=yes

Units are S.I. units (second, meters, Newtons, ...)
If the header above contains a line with 'inDegrees', this indicates whether rotational values are in degrees (yes) or radians (no).

endheader
time	pelvis_tilt	pelvis_list	pelvis_rotation	pelvis_tx	pelvis_ty	pelvis_tz	hip_flexion_r	hip_adduction_r	hip_rotation_r	knee_angle_r	ankle_angle_r	subtalar_angle_r	mtp_angle_r	hip_flexion_l	hip_adduction_l	hip_rotation_l	knee_angle_l	ankle_angle_l	subtalar_angle_l	mtp_angle_l	lumbar_extension	lumbar_bending	lumbar_rotation	arm_flex_r	arm_add_r	arm_rot_r	elbow_flex_r	pro_sup_r	wrist_flex_r	wrist_dev_r	arm_flex_l	arm_add_l	arm_rot_l	elbow_flex_l	pro_sup_l	wrist_flex_l	wrist_dev_l
      1.25100000	     -6.05209371	   -188.11896461	    -91.90187256	      0.04850353	     -0.13663603	      1.69492609	    -18.97458216	    -13.36653438	    -17.06093369	     31.77999192	     -6.15199477	      0.37700000	      0.00000000	      3.40330864	      4.26524698	    -12.93381641	     27.21724676	      2.33868608	      0.00000000	      0.00000000	    -17.96329214	    -11.03663479	     -7.72047889	      0.03322757	    -36.39360649	     22.97778609	     78.18060370	    110.21430167	      0.00000000	      0.00000000	      8.02848857	    -48.92721879	     52.30272250	     82.66604629	    111.19392302	      0.00000000	      0.00000000
      1.26800000	     -5.85296805	   -188.10718402	    -91.79180052	      0.05051803	     -0.13701648	      1.69540714	    -18.68735330	    -13.28169391	    -17.01462686	     32.00566255	     -6.14388914	      0.37700000	      0.00000000	      3.20176308	      4.26669699	    -12.92878821	     26.44052860	      2.14622316	      0.00000000	      0.00000000	    -17.81027646	    -10.63220682	     -8.09968842	      0.45760044	    -36.02831791	     22.40892519	     78.03921399	    110.20235103	      0.00000000	      0.00000000	      7.90250024	    -48.76003297	     52.63375135	     82.56880536	    111.21162376	      0.00000000	      0.00000000
      1.28500000	     -5.84290510	   -187.92306297	    -91.63662201	      0.05184806	     -0.13780804	      1.69531667	    -18.37448036	    -13.28729000	    -17.05932254	     31.86799972	     -6.35593566	      0.37700000	      0.00000000	      2.82620040	      4.54363878	    -12.29299577	     25.03802195	      1.75556909	      0.00000000	      0.00000000	    -17.36021567	    -10.52501228	     -7.74346489	     -0.88300226	    -34.59938331	     18.67845788	     77.58678927	    110.15631985	      0.00000000	      0.00000000	      9.90121921	    -48.51147984	     55.96288012	     81.66642272	    111.38038986	      0.00000000	      0.00000000
      1.30100000	     -5.55452114	   -187.86933557	    -91.67311511	      0.05359259	     -0.13855046	      1.69585003	    -17.99312705	    -13.13539264	    -16.92436329	     31.89213744	     -6.50226995	      0.37700000	      0.00000000	      2.39906338	      4.49915390	    -12.06065470	     23.88824513	      1.54448326	      0.00000000	      0.00000000	    -17.16228072	    -10.06008148	     -8.13661886	     -0.31261521	    -34.05875198	     18.18139012	     77.23524690	    110.16015221	      0.00000000	      0.00000000	      9.56716628	    -48.39144872	     56.22897557	     81.50333207	    111.39743269	      0.00000000	      0.00000000
      1.31800000	     -5.48514168	   -187.80630658	    -91.76436620	      0.05503828	     -0.13978524	      1.69587007	    -17.78591328	    -13.16516858	    -16.82804615	     31.45966304	     -6.89725221	      0.37700000	      0.00000000	      1.60210001	      4.80137791	    -11.14010341	     22.09394487	      1.15008405	      0.00000000	      0.00000000	    -16.85831616	     -9.90630917	     -8.42866602	      0.06760432	    -33.14919136	     17.19073185	     76.31130381	    110.18933206	      0.00000000	      0.00000000	      9.06450190	    -48.09416639	     55.97990561	     80.98443187	    111.40665795	      0.00000000	      0.00000000
      1.33500000	     -5.18817240	   -187.67681168	    -91.98641018	      0.05655644	     -0.14083877	      1.69606001	    -17.36032060	    -13.01559342	    -16.54020457	     31.15737108	     -7.27933906	      0.37700000	      0.00000000	      0.95286653	      4.79859948	    -10.52868565	     20.59609566	      0.91000563	      0.00000000	      0.00000000	    -16.51774616	     -9.47259762	     -8.65202398	      0.61689207	    -32.59011762	     16.71345981	     75.64605937	    110.21470488	      0.00000000	      0.00000000	      8.63433212	    -47.84139369	     56.06236952	     80.64036783	    111.42464787	      0.00000000	      0.00000000
      1.35200000	     -4.95646177	   -187.53068493	    -92.32222646	      0.05781136	     -0.14202118	      1.69616467	    -16.90035788	    -12.96883603	    -16.28062584	     30.77842478	     -7.70194668	      0.37700000	      0.00000000	      0.17402380	      4.86741924	     -9.78561955	     18.92736645	      0.56313639	      0.00000000	      0.00000000	    -16.18386133	     -9.11582896	     -8.79345810	      1.16367876	    -32.10279996	     16.39733619	     75.00229974	    110.24624840	      0.00000000	      0.00000000	      8.09359408	    -47.54988630	     56.00289603	     80.12971996	    111.44524754	      0.00000000	      0.00000000
      1.36800000	     -4.67685879	   -187.36159755	    -92.62250387	      0.05888984	     -0.14309978	      1.69630881	    -16.33637384	    -12.86246114	    -16.03080201	     30.54324158	     -8.15942843	      0.37700000	      0.00000000	     -0.51122628	      4.80347755	     -9.30866964	     17.54700072	      0.26572135	      0.00000000	      0.00000000	    -15.87776688	     -8.70512167	     -8.96169570	      1.68625032	    -31.73079434	     16.25674800	     74.59299757	    110.26833956	      0.00000000	      0.00000000	      7.67175823	    -47.34654489	     56.04861209	     79.87632164	    111.45716695	      0.00000000	      0.00000000
      1.38500000	     -4.40183281	   -187.17647354	    -93.08219072	      0.05967002	     -0.14426863	      1.69621648	    -15.74217194	    -12.79047440	    -15.71021732	     30.21628166	     -8.67292640	      0.37700000	      0.00000000	     -1.28679720	      4.73820297	     -8.74153267	     16.13350623	     -0.06845008	      0.00000000	      0.00000000	    -15.54646483	     -8.31612158	     -8.99722723	      2.24570658	    -31.42139140	     16.26354990	     74.06690631	    110.30298905	      0.00000000	      0.00000000	      7.19617210	    -47.08197697	     56.11636737	     79.47998904	    111.47817974	      0.00000000	      0.00000000
